<mxfile host="app.diagrams.net" modified="2023-10-16T04:25:14.843Z" agent="Mozilla/5.0 (Windows NT 10.0; Win64; x64) AppleWebKit/537.36 (KHTML, like Gecko) Chrome/118.0.0.0 Safari/537.36" version="21.8.1" etag="kSeaDWcjOy4nxQg_x5RY" type="github">
  <diagram name="PÃ¡gina-1" id="V8f9PPF5DkbsrTdakX4X">
    <mxGraphModel>
      <root>
        <mxCell id="0" />
        <mxCell id="1" parent="0" />
      </root>
    </mxGraphModel>
  </diagram>
</mxfile>
